# xmcd
#
# Track frame offsets:
#   150
#   13510
#   32100
#   49595
#   64610
#   83981
#   103595
#   121736
#   139030
#   161095
#   182625
#   200659
#   219994
#   240490
#   263475
#   279350
#   301265
#
# Disc length: 4447 seconds
#
# Revision: 0
# Processed by: cddbd v1.5.2PL0 Copyright (c) Steve Scherf et al.
# Submitted via: uFREEDB 1.6.2
#
DISCID=de115d11
DTITLE=wewe - edwe
DYEAR=1900
DGENRE=Blues
TTITLE0=a060501
TTITLE1=a060502
TTITLE2=a060503
TTITLE3=a060504
TTITLE4=a060505
TTITLE5=a060506
TTITLE6=a060507
TTITLE7=a060508
TTITLE8=a060509
TTITLE9=a060510
TTITLE10=a060511
TTITLE11=a060512
TTITLE12=a060513
TTITLE13=a060514
TTITLE14=a060515
TTITLE15=a060516
TTITLE16=a060517
EXTD=
EXTT0=
EXTT1=
EXTT2=
EXTT3=
EXTT4=
EXTT5=
EXTT6=
EXTT7=
EXTT8=
EXTT9=
EXTT10=
EXTT11=
EXTT12=
EXTT13=
EXTT14=
EXTT15=
EXTT16=
PLAYORDER=
